<svg width="85" height="86" viewBox="0 0 85 86" fill="none" xmlns="http://www.w3.org/2000/svg">
<circle cx="42.5" cy="43.3279" r="42.5" fill="#002F8C"/>
<path d="M41.4727 37.2313L36.8909 32.8165C36.4545 32.3961 36.2364 31.9055 36.2364 31.3449C36.2364 30.7843 36.4545 30.2938 36.8909 29.8733L41.4727 25.4586C41.9091 25.0381 42.4182 24.8279 43 24.8279C43.5818 24.8279 44.0909 25.0381 44.5273 25.4586L49.1091 29.8733C49.5455 30.2938 49.7636 30.7843 49.7636 31.3449C49.7636 31.9055 49.5455 32.3961 49.1091 32.8165L44.5273 37.2313C44.0909 37.6517 43.5818 37.862 43 37.862C42.4182 37.862 41.9091 37.6517 41.4727 37.2313ZM21.1818 61.8279C20.5636 61.8279 20.0458 61.6261 19.6284 61.2224C19.2109 60.8188 19.0015 60.3198 19 59.7256V53.4188C19 52.2275 19.4276 51.2289 20.2829 50.423C21.1382 49.6172 22.1651 49.2142 23.3636 49.2142H30.5091C31.2364 49.2142 31.9273 49.3894 32.5818 49.7398C33.2364 50.0902 33.7636 50.5632 34.1636 51.1588C35.2182 52.5253 36.5185 53.594 38.0647 54.3648C39.6109 55.1356 41.256 55.5211 43 55.5211C44.7818 55.5211 46.4458 55.1356 47.992 54.3648C49.5382 53.594 50.8196 52.5253 51.8364 51.1588C52.3091 50.5632 52.864 50.0902 53.5011 49.7398C54.1382 49.3894 54.8015 49.2142 55.4909 49.2142H62.6364C63.8727 49.2142 64.9091 49.6172 65.7454 50.423C66.5818 51.2289 67 52.2275 67 53.4188V59.7256C67 60.3212 66.7905 60.8209 66.3716 61.2245C65.9527 61.6282 65.4349 61.8293 64.8182 61.8279H53.9091C53.2909 61.8279 52.7731 61.6261 52.3556 61.2224C51.9382 60.8188 51.7287 60.3198 51.7273 59.7256V57.0452C50.4545 57.9212 49.0815 58.5869 47.608 59.0424C46.1345 59.4979 44.5985 59.7256 43 59.7256C41.4364 59.7256 39.9091 59.4894 38.4182 59.0171C36.9273 58.5448 35.5455 57.87 34.2727 56.9926V59.7256C34.2727 60.3212 34.0633 60.8209 33.6444 61.2245C33.2255 61.6282 32.7076 61.8293 32.0909 61.8279H21.1818ZM25.5455 47.112C23.7273 47.112 22.1818 46.4988 20.9091 45.2725C19.6364 44.0462 19 42.557 19 40.8052C19 39.0182 19.6364 37.5207 20.9091 36.3126C22.1818 35.1045 23.7273 34.4997 25.5455 34.4983C27.4 34.4983 28.9549 35.1031 30.2102 36.3126C31.4655 37.5221 32.0924 39.0196 32.0909 40.8052C32.0909 42.557 31.464 44.0462 30.2102 45.2725C28.9564 46.4988 27.4015 47.112 25.5455 47.112ZM60.4545 47.112C58.6364 47.112 57.0909 46.4988 55.8182 45.2725C54.5455 44.0462 53.9091 42.557 53.9091 40.8052C53.9091 39.0182 54.5455 37.5207 55.8182 36.3126C57.0909 35.1045 58.6364 34.4997 60.4545 34.4983C62.3091 34.4983 63.864 35.1031 65.1193 36.3126C66.3745 37.5221 67.0014 39.0196 67 40.8052C67 42.557 66.3731 44.0462 65.1193 45.2725C63.8655 46.4988 62.3105 47.112 60.4545 47.112Z" fill="white"/>
</svg>
