<svg width="85" height="86" viewBox="0 0 85 86" fill="none" xmlns="http://www.w3.org/2000/svg">
<circle cx="42.5" cy="43.3279" r="42.5" fill="#9747FF"/>
<path d="M22.2869 45.463H33.4578C33.8068 51.9679 35.8657 58.2626 39.4237 63.703C34.9666 62.9984 30.8671 60.8262 27.7661 57.526C24.6651 54.2258 22.7396 49.9836 22.2869 45.463ZM22.2849 41.3549C22.7371 36.8341 24.6641 32.5918 27.7647 29.2912C30.8653 25.9906 34.9646 23.8179 39.4216 23.1128C35.8636 28.5532 33.8048 34.8479 33.4558 41.3528L22.2849 41.3549ZM62.873 41.3549H51.7021C51.3534 34.8493 49.2946 28.5538 45.7362 23.1128C50.1933 23.8174 54.2928 25.9896 57.3938 29.2898C60.4948 32.5901 62.4223 36.8322 62.8751 41.3528M62.8751 45.4609C62.4224 49.9813 60.4952 54.2232 57.3946 57.5234C54.294 60.8235 50.195 62.996 45.7383 63.701C49.2959 58.2612 51.3548 51.9672 51.7041 45.463L62.8751 45.4609ZM37.5431 45.463H47.6188C47.2838 51.008 45.5499 56.3753 42.581 61.0574C39.6121 56.3753 37.8781 51.008 37.5431 45.463ZM37.5431 41.3549C37.8781 35.8098 39.6121 30.4425 42.581 25.7605C45.5499 30.4425 47.2838 35.8098 47.6188 41.3549H37.5431Z" fill="white"/>
</svg>
