<svg width="85" height="86" viewBox="0 0 85 86" fill="none" xmlns="http://www.w3.org/2000/svg">
<circle cx="42.5" cy="43.3279" r="42.5" fill="#2563EB"/>
<path d="M25.5 45.6255C28.3021 45.6255 30.6205 46.1842 32.2754 47.1733C33.9408 48.1689 34.9999 49.6562 35 51.4292V60.02H16V51.4292C16.0001 49.6562 17.0592 48.1689 18.7246 47.1733C20.3795 46.1842 22.6979 45.6255 25.5 45.6255ZM35 43.4214H31.7861V38.6294L31.2988 38.8716L31.3506 39.3013L31.3574 39.3599V39.4185C31.3574 42.6354 28.7255 45.2231 25.5 45.2231C22.2745 45.2231 19.6426 42.6354 19.6426 39.4185V39.3599L19.6494 39.3013L19.7002 38.8716L16.5557 37.312L14.7471 36.4146L16.5566 35.52L25.0566 31.3159L25.5 31.0972L25.9434 31.3159L34.4434 35.52L35 35.7954V43.4214Z" fill="white" stroke="#2563EB" stroke-width="2"/>
<path d="M60.1538 45.6255C62.956 45.6255 65.2744 46.1842 66.9292 47.1733C68.5947 48.1689 69.6538 49.6562 69.6538 51.4292V60.02H50.6538V51.4292C50.6539 49.6562 51.713 48.1689 53.3784 47.1733C55.0333 46.1842 57.3517 45.6255 60.1538 45.6255ZM69.6538 43.4214H66.44V38.6294L65.9527 38.8716L66.0044 39.3013L66.0113 39.3599V39.4185C66.0113 42.6354 63.3793 45.2231 60.1538 45.2231C56.9283 45.2231 54.2964 42.6354 54.2964 39.4185V39.3599L54.3033 39.3013L54.354 38.8716L51.2095 37.312L49.4009 36.4146L51.2105 35.52L59.7105 31.3159L60.1538 31.0972L60.5972 31.3159L69.0972 35.52L69.6538 35.7954V43.4214Z" fill="white" stroke="#2563EB" stroke-width="2"/>
<path d="M42.4998 43.7058C46.1346 43.7058 49.1139 44.4643 51.2196 45.7791C53.3389 47.1024 54.6151 49.031 54.6151 51.2683V62.6355H30.3846V51.2683C30.3846 49.0309 31.6617 47.1024 33.7811 45.7791C35.8867 44.4644 38.8653 43.7058 42.4998 43.7058ZM54.6151 39.9646H51.0272V33.2273L49.7479 33.8914L49.8456 34.7507L49.8514 34.8064V34.863C49.8514 39.0098 46.5919 42.4246 42.4998 42.4246C38.4079 42.4245 35.1483 39.0098 35.1483 34.863V34.8064L35.1551 34.7507L35.2518 33.8914L30.9247 31.6501L29.2088 30.7605L30.9256 29.8738L42.0409 24.1316L42.4998 23.8943L42.9588 24.1316L54.0741 29.8738L54.6151 30.1531V39.9646Z" fill="white" stroke="#2563EB" stroke-width="2"/>
</svg>
