<svg width="85" height="86" viewBox="0 0 85 86" fill="none" xmlns="http://www.w3.org/2000/svg">
<circle cx="42.5" cy="43.3279" r="42.5" fill="#2EBB5E"/>
<path d="M43.8919 23.913C43.0473 23.3552 41.9525 23.3552 41.108 23.913L30.4809 30.9321H21.2301C19.1578 30.9321 17.4766 32.5978 17.4766 34.6509V59.4425C17.4766 61.4956 19.1578 63.1613 21.2301 63.1613H37.4953V55.7238C37.4953 52.989 39.7395 50.7655 42.4999 50.7655C45.2603 50.7655 47.5046 52.989 47.5046 55.7238V63.1613H63.7698C65.842 63.1613 67.5233 61.4956 67.5233 59.4425V34.6509C67.5233 32.5978 65.842 30.9321 63.7698 30.9321H54.519L43.8919 23.913ZM24.9836 38.3696H27.4859C28.1741 38.3696 28.7371 38.9274 28.7371 39.6092V44.5675C28.7371 45.2493 28.1741 45.8071 27.4859 45.8071H24.9836C24.2954 45.8071 23.7324 45.2493 23.7324 44.5675V39.6092C23.7324 38.9274 24.2954 38.3696 24.9836 38.3696ZM56.2628 39.6092C56.2628 38.9274 56.8258 38.3696 57.5139 38.3696H60.0163C60.7044 38.3696 61.2675 38.9274 61.2675 39.6092V44.5675C61.2675 45.2493 60.7044 45.8071 60.0163 45.8071H57.5139C56.8258 45.8071 56.2628 45.2493 56.2628 44.5675V39.6092ZM24.9836 48.2863H27.4859C28.1741 48.2863 28.7371 48.8441 28.7371 49.5259V54.4842C28.7371 55.166 28.1741 55.7238 27.4859 55.7238H24.9836C24.2954 55.7238 23.7324 55.166 23.7324 54.4842V49.5259C23.7324 48.8441 24.2954 48.2863 24.9836 48.2863ZM56.2628 49.5259C56.2628 48.8441 56.8258 48.2863 57.5139 48.2863H60.0163C60.7044 48.2863 61.2675 48.8441 61.2675 49.5259V54.4842C61.2675 55.166 60.7044 55.7238 60.0163 55.7238H57.5139C56.8258 55.7238 56.2628 55.166 56.2628 54.4842V49.5259ZM35.6185 37.13C35.6185 35.3219 36.3435 33.5878 37.634 32.3092C38.9245 31.0306 40.6749 30.3123 42.4999 30.3123C44.325 30.3123 46.0753 31.0306 47.3658 32.3092C48.6563 33.5878 49.3814 35.3219 49.3814 37.13C49.3814 38.9382 48.6563 40.6723 47.3658 41.9509C46.0753 43.2295 44.325 43.9478 42.4999 43.9478C40.6749 43.9478 38.9245 43.2295 37.634 41.9509C36.3435 40.6723 35.6185 38.9382 35.6185 37.13ZM42.4999 33.4113C41.8118 33.4113 41.2488 33.9691 41.2488 34.6509V37.13C41.2488 37.8118 41.8118 38.3696 42.4999 38.3696H45.0023C45.6904 38.3696 46.2534 37.8118 46.2534 37.13C46.2534 36.4483 45.6904 35.8905 45.0023 35.8905H43.7511V34.6509C43.7511 33.9691 43.1881 33.4113 42.4999 33.4113Z" fill="white"/>
</svg>
